<mxfile host="app.diagrams.net" modified="2023-08-09T20:50:02.465Z" agent="Mozilla/5.0 (Windows NT 10.0; Win64; x64) AppleWebKit/537.36 (KHTML, like Gecko) Chrome/115.0.0.0 Safari/537.36 Edg/115.0.1901.183" etag="nj6fWgMM0873kysLqWeM" version="21.6.7" type="device">
  <diagram name="Page-1" id="03l5xjzz-3uF1a6AlHo7">
    <mxGraphModel dx="1644" dy="1530" grid="1" gridSize="10" guides="1" tooltips="1" connect="1" arrows="1" fold="1" page="1" pageScale="1" pageWidth="850" pageHeight="1100" math="0" shadow="0">
      <root>
        <mxCell id="0" />
        <mxCell id="1" parent="0" />
        <mxCell id="FWj0BLnxnAVG_ocDQ5Bf-26" value="" style="rounded=0;whiteSpace=wrap;html=1;labelBorderColor=default;" vertex="1" parent="1">
          <mxGeometry x="-40" y="-15" width="800" height="430" as="geometry" />
        </mxCell>
        <mxCell id="FWj0BLnxnAVG_ocDQ5Bf-27" value="Search" style="rounded=1;whiteSpace=wrap;html=1;align=left;" vertex="1" parent="1">
          <mxGeometry x="120" y="20" width="450" height="30" as="geometry" />
        </mxCell>
        <mxCell id="FWj0BLnxnAVG_ocDQ5Bf-28" value="Logo" style="ellipse;whiteSpace=wrap;html=1;aspect=fixed;" vertex="1" parent="1">
          <mxGeometry x="-34" y="-10" width="70" height="70" as="geometry" />
        </mxCell>
        <mxCell id="FWj0BLnxnAVG_ocDQ5Bf-32" value="" style="html=1;verticalLabelPosition=bottom;align=center;labelBackgroundColor=#ffffff;verticalAlign=top;strokeWidth=2;strokeColor=#0080F0;shadow=0;dashed=0;shape=mxgraph.ios7.icons.settings;labelBorderColor=none;" vertex="1" parent="1">
          <mxGeometry x="594" y="11" width="40" height="40" as="geometry" />
        </mxCell>
        <mxCell id="FWj0BLnxnAVG_ocDQ5Bf-33" value="" style="shape=actor;whiteSpace=wrap;html=1;" vertex="1" parent="1">
          <mxGeometry x="680" width="40" height="50" as="geometry" />
        </mxCell>
        <mxCell id="FWj0BLnxnAVG_ocDQ5Bf-34" value="" style="ellipse;whiteSpace=wrap;html=1;aspect=fixed;opacity=60;" vertex="1" parent="1">
          <mxGeometry x="660" y="-10" width="80" height="80" as="geometry" />
        </mxCell>
        <mxCell id="FWj0BLnxnAVG_ocDQ5Bf-36" value="" style="endArrow=none;html=1;rounded=0;" edge="1" parent="1" source="FWj0BLnxnAVG_ocDQ5Bf-26" target="FWj0BLnxnAVG_ocDQ5Bf-26">
          <mxGeometry width="50" height="50" relative="1" as="geometry">
            <mxPoint x="380" y="190" as="sourcePoint" />
            <mxPoint x="380" y="190" as="targetPoint" />
            <Array as="points">
              <mxPoint x="730" y="80" />
              <mxPoint y="80" />
            </Array>
          </mxGeometry>
        </mxCell>
        <mxCell id="FWj0BLnxnAVG_ocDQ5Bf-37" value="Interest" style="rounded=1;whiteSpace=wrap;html=1;" vertex="1" parent="1">
          <mxGeometry y="90" width="90" height="30" as="geometry" />
        </mxCell>
        <mxCell id="FWj0BLnxnAVG_ocDQ5Bf-38" value="Projects" style="rounded=1;whiteSpace=wrap;html=1;" vertex="1" parent="1">
          <mxGeometry x="207" y="90" width="90" height="30" as="geometry" />
        </mxCell>
        <mxCell id="FWj0BLnxnAVG_ocDQ5Bf-40" value="College" style="rounded=1;whiteSpace=wrap;html=1;" vertex="1" parent="1">
          <mxGeometry x="441" y="91" width="90" height="30" as="geometry" />
        </mxCell>
        <mxCell id="FWj0BLnxnAVG_ocDQ5Bf-41" value="About me" style="rounded=1;whiteSpace=wrap;html=1;" vertex="1" parent="1">
          <mxGeometry x="630" y="91" width="90" height="30" as="geometry" />
        </mxCell>
        <mxCell id="FWj0BLnxnAVG_ocDQ5Bf-42" value="" style="endArrow=none;html=1;rounded=0;" edge="1" parent="1" source="FWj0BLnxnAVG_ocDQ5Bf-26" target="FWj0BLnxnAVG_ocDQ5Bf-26">
          <mxGeometry width="50" height="50" relative="1" as="geometry">
            <mxPoint x="340" y="220" as="sourcePoint" />
            <mxPoint x="370" y="200" as="targetPoint" />
            <Array as="points">
              <mxPoint y="140" />
              <mxPoint x="380" y="140" />
              <mxPoint x="750" y="140" />
            </Array>
          </mxGeometry>
        </mxCell>
        <mxCell id="FWj0BLnxnAVG_ocDQ5Bf-44" value="text" style="rounded=0;whiteSpace=wrap;html=1;" vertex="1" parent="1">
          <mxGeometry y="170" width="340" height="220" as="geometry" />
        </mxCell>
        <mxCell id="FWj0BLnxnAVG_ocDQ5Bf-45" value="PICTURES&amp;nbsp;" style="shape=internalStorage;whiteSpace=wrap;html=1;backgroundOutline=1;dx=90;dy=70;" vertex="1" parent="1">
          <mxGeometry x="470" y="190" width="190" height="150" as="geometry" />
        </mxCell>
      </root>
    </mxGraphModel>
  </diagram>
</mxfile>
